<svg width="147" height="85" viewBox="0 0 147 85" fill="none" xmlns="http://www.w3.org/2000/svg">
<path d="M0.488109 2.94799C0.428162 2.21024 0.977795 1.56379 1.71546 1.50398C2.45312 1.44417 3.09959 1.99369 3.15953 2.73144L0.488109 2.94799ZM3.67423 21.2938L2.33913 21.4117L2.33904 21.4108L3.67423 21.2938ZM3.85632 27.4569L2.82831 28.3166L2.82798 28.3161L3.85632 27.4569ZM9.84704 26.2769L10.3815 27.506L10.3808 27.5061L9.84704 26.2769ZM24.1308 18.9954L23.4865 17.8204L23.4871 17.8204L24.1308 18.9954ZM28.1916 16.6446L26.8531 16.5798L26.8532 16.5796L28.1916 16.6446ZM22.895 12.0683L23.6032 10.9306L23.6032 10.9307L22.895 12.0683ZM2.42427 2.68524C1.71709 2.4671 1.32076 1.71698 1.53902 1.00981C1.75729 0.30265 2.50736 -0.0938282 3.21454 0.124319L2.42427 2.68524ZM13.0694 21.5737C12.8328 20.8727 13.2089 20.1121 13.9101 19.8752C14.6114 19.6383 15.372 20.0148 15.609 20.716L13.0694 21.5737ZM55.4987 70.2143L55.9869 68.9667L55.4987 70.2143ZM86.9886 58.9938L88.3266 58.9183L88.3266 58.9183L86.9886 58.9938ZM66.8377 66.3051L65.5604 66.71L66.8377 66.3051ZM95.5218 82.8264L95.5452 84.1663L95.5452 84.1663L95.5218 82.8264ZM144.036 55.449C144.467 54.8474 145.304 54.7093 145.906 55.1405C146.508 55.5717 146.646 56.4088 146.215 57.0104L144.036 55.449ZM3.15953 2.73144C3.40799 5.7939 3.73364 8.85135 4.06592 11.9251C4.39809 14.9938 4.73737 18.0812 5.00894 21.1765L2.33904 21.4108C2.07066 18.3485 1.73442 15.2912 1.40129 12.2135C1.06926 9.14142 0.73986 6.05085 0.488109 2.94799L3.15953 2.73144ZM5.00888 21.1756C5.04719 21.6045 5.02187 22.1951 4.99215 22.7483C4.95945 23.3506 4.9169 23.9679 4.8904 24.6002C4.86434 25.2286 4.85812 25.7893 4.89207 26.2236C4.90901 26.4409 4.93337 26.5895 4.95645 26.6803C4.98511 26.7936 4.98754 26.7208 4.88468 26.5977L2.82798 28.3161C2.55451 27.9889 2.42716 27.6102 2.35835 27.3391C2.28394 27.0456 2.24306 26.7315 2.21994 26.4317C2.17326 25.8318 2.18513 25.1402 2.21261 24.4879C2.23963 23.8397 2.28657 23.1484 2.3161 22.6041C2.34811 22.0105 2.35729 21.6161 2.33913 21.4117L5.00888 21.1756ZM4.88433 26.5972C4.69678 26.3732 4.55574 26.4953 4.99903 26.4747C5.36511 26.4582 5.86873 26.3513 6.45755 26.1709C7.62489 25.8128 8.79673 25.2723 9.31324 25.0477L10.3808 27.5061C9.9379 27.6987 8.59215 28.3196 7.24301 28.7331C6.57357 28.9385 5.81948 29.12 5.12248 29.1523C4.50314 29.1808 3.49366 29.1121 2.82831 28.3166L4.88433 26.5972ZM9.31302 25.0481C14.1689 22.9369 18.7753 20.4034 23.4865 17.8204L24.7751 20.1705C20.0848 22.7421 15.3696 25.3374 10.3815 27.506L9.31302 25.0481ZM23.4871 17.8204C23.6703 17.7196 24.0508 17.5431 24.4206 17.3688C24.8237 17.1788 25.2957 16.9542 25.748 16.724C26.2088 16.4898 26.6106 16.2687 26.8855 16.0874C26.9515 16.0439 27.0036 16.0072 27.0431 15.9773C27.0627 15.9627 27.0771 15.9506 27.0878 15.9417C27.0929 15.9372 27.0972 15.934 27.0999 15.9315C27.1026 15.9291 27.1038 15.9279 27.1038 15.928C27.1037 15.9281 27.1017 15.9295 27.0985 15.9328C27.0954 15.9361 27.0905 15.9414 27.0842 15.9491C27.0719 15.9629 27.0499 15.9903 27.0236 16.0304C26.9824 16.0943 26.8672 16.2875 26.8531 16.5798L29.5301 16.7095C29.5127 17.072 29.367 17.3426 29.2713 17.4901C29.169 17.6481 29.0526 17.7725 28.9598 17.8613C28.7749 18.039 28.5565 18.1964 28.3591 18.3261C27.9558 18.5916 27.4464 18.867 26.9635 19.1127C26.4725 19.3628 25.9687 19.6019 25.5632 19.7929C25.1249 19.9998 24.8645 20.1217 24.7749 20.1708L23.4871 17.8204ZM26.8532 16.5796C26.8568 16.5058 26.8328 16.3244 26.5648 16.0038C26.2965 15.6827 25.8767 15.3378 25.3372 14.9814C24.8072 14.6312 24.2235 14.3096 23.6645 14.0127C23.1434 13.7361 22.5679 13.4432 22.1868 13.206L23.6032 10.9307C23.8805 11.1033 24.3095 11.3207 24.9211 11.6454C25.4948 11.95 26.1726 12.321 26.8151 12.7455C27.4481 13.1638 28.1124 13.6761 28.6213 14.2849C29.1305 14.8941 29.5787 15.7163 29.5301 16.7096L26.8532 16.5796ZM22.1868 13.206C16.359 9.57847 8.75777 4.63913 2.42427 2.68524L3.21454 0.124319C9.96574 2.20702 17.9298 7.39922 23.6032 10.9306L22.1868 13.206ZM15.609 20.716C18.6679 29.7697 24.1504 40.0502 31.205 48.9746C38.2692 57.9104 46.8248 65.381 55.9869 68.9667L55.0103 71.4624C45.2447 67.6409 36.3312 59.7812 29.1022 50.6366C21.8641 41.4801 16.2306 30.9293 13.0694 21.5737L15.609 20.716ZM55.9869 68.9667C59.0068 70.1482 64.217 70.9033 69.5159 70.5892L69.6747 73.2645C64.1082 73.5949 58.4884 72.8236 55.0103 71.4624L55.9869 68.9667ZM69.5159 70.5892C73.8689 70.3311 78.0915 69.3614 81.1205 67.4782C84.0738 65.6422 85.8708 62.9715 85.6507 59.0693L88.3266 58.9183C88.611 63.9614 86.1738 67.4926 82.5355 69.7544C78.9731 71.9692 74.2469 72.9934 69.6747 73.2645L69.5159 70.5892ZM85.6506 59.0693C85.4492 55.4989 84.0053 53.6191 82.2551 52.7493C80.4187 51.8368 77.9283 51.876 75.4199 52.8287C70.3404 54.7579 66.2271 59.943 68.1151 65.9002L65.5604 66.71C63.0863 58.9044 68.6036 52.5504 74.468 50.3231C77.4315 49.1976 80.7404 49.0037 83.4477 50.3491C86.2407 51.7371 88.0832 54.6053 88.3266 58.9183L85.6506 59.0693ZM68.1151 65.9001C68.7382 67.8656 69.6149 69.6127 70.6946 71.1603L68.4959 72.6935C67.2623 70.9248 66.2651 68.9339 65.5604 66.71L68.1151 65.9001ZM70.6946 71.1603C75.8908 78.61 85.9829 81.6525 95.4985 81.4865L95.5452 84.1663C85.6111 84.3396 74.4252 81.1935 68.4959 72.6935L70.6946 71.1603ZM95.4984 81.4865C115.806 81.1319 132.259 71.8793 144.036 55.449L146.215 57.0104C133.978 74.0824 116.757 83.7959 95.5452 84.1663L95.4984 81.4865Z" fill="#6A09AD"/>
</svg>
