<svg width="147" height="85" viewBox="0 0 147 85" fill="none" xmlns="http://www.w3.org/2000/svg">
<path d="M146.468 3.03051C146.528 2.29276 145.978 1.64631 145.241 1.5865C144.503 1.52669 143.856 2.07621 143.797 2.81396L146.468 3.03051ZM143.282 21.3763L144.617 21.4942L144.617 21.4933L143.282 21.3763ZM143.1 27.5394L144.128 28.3991L144.128 28.3986L143.1 27.5394ZM137.109 26.3594L136.575 27.5885L136.575 27.5886L137.109 26.3594ZM122.825 19.0779L123.47 17.9029L123.469 17.9029L122.825 19.0779ZM118.764 16.7271L120.103 16.6623L120.103 16.6622L118.764 16.7271ZM124.061 12.1509L123.353 11.0132L123.353 11.0132L124.061 12.1509ZM144.532 2.76776C145.239 2.54961 145.635 1.7995 145.417 1.09233C145.199 0.38517 144.449 -0.0113086 143.742 0.206838L144.532 2.76776ZM133.887 21.6562C134.123 20.9553 133.747 20.1946 133.046 19.9577C132.345 19.7208 131.584 20.0973 131.347 20.7986L133.887 21.6562ZM91.4573 70.2968L90.9691 69.0492L91.4573 70.2968ZM59.9675 59.0763L58.6295 59.0008L58.6295 59.0009L59.9675 59.0763ZM80.1183 66.3876L81.3957 66.7925L80.1183 66.3876ZM51.4342 82.9089L51.4108 84.2488L51.4109 84.2488L51.4342 82.9089ZM2.91992 55.5315C2.48876 54.93 1.65157 54.7918 1.05003 55.223C0.448485 55.6542 0.310364 56.4913 0.741534 57.0929L2.91992 55.5315ZM143.797 2.81396C143.548 5.87642 143.222 8.93387 142.89 12.0077C142.558 15.0763 142.219 18.1637 141.947 21.259L144.617 21.4933C144.885 18.431 145.222 15.3737 145.555 12.296C145.887 9.22394 146.216 6.13337 146.468 3.03051L143.797 2.81396ZM141.947 21.2581C141.909 21.687 141.934 22.2776 141.964 22.8308C141.997 23.4332 142.039 24.0504 142.066 24.6827C142.092 25.3111 142.098 25.8718 142.064 26.3062C142.047 26.5234 142.023 26.672 142 26.7629C141.971 26.8762 141.969 26.8033 142.071 26.6803L144.128 28.3986C144.402 28.0714 144.529 27.6927 144.598 27.4217C144.672 27.1281 144.713 26.8141 144.736 26.5143C144.783 25.9143 144.771 25.2227 144.743 24.5704C144.716 23.9222 144.669 23.2309 144.64 22.6866C144.608 22.093 144.599 21.6986 144.617 21.4942L141.947 21.2581ZM142.072 26.6798C142.259 26.4557 142.4 26.5778 141.957 26.5572C141.591 26.5407 141.087 26.4338 140.499 26.2534C139.331 25.8954 138.159 25.3548 137.643 25.1302L136.575 27.5886C137.018 27.7812 138.364 28.4022 139.713 28.8157C140.382 29.021 141.137 29.2026 141.834 29.2348C142.453 29.2633 143.462 29.1947 144.128 28.3991L142.072 26.6798ZM137.643 25.1306C132.787 23.0195 128.181 20.486 123.47 17.9029L122.181 20.253C126.871 22.8246 131.586 25.4199 136.575 27.5885L137.643 25.1306ZM123.469 17.9029C123.286 17.8021 122.905 17.6256 122.535 17.4513C122.132 17.2613 121.66 17.0367 121.208 16.8065C120.747 16.5723 120.345 16.3512 120.071 16.1699C120.005 16.1264 119.952 16.0897 119.913 16.0598C119.893 16.0452 119.879 16.0332 119.868 16.0242C119.863 16.0197 119.859 16.0165 119.856 16.0141C119.853 16.0116 119.852 16.0104 119.852 16.0105C119.852 16.0106 119.854 16.012 119.858 16.0153C119.861 16.0186 119.866 16.024 119.872 16.0316C119.884 16.0454 119.906 16.0728 119.932 16.1129C119.974 16.1768 120.089 16.37 120.103 16.6623L117.426 16.792C117.443 17.1546 117.589 17.4252 117.685 17.5726C117.787 17.7306 117.903 17.855 117.996 17.9439C118.181 18.1216 118.4 18.2789 118.597 18.4086C119 18.6741 119.51 18.9495 119.993 19.1953C120.484 19.4453 120.987 19.6844 121.393 19.8754C121.831 20.0824 122.092 20.2042 122.181 20.2533L123.469 17.9029ZM120.103 16.6622C120.099 16.5883 120.123 16.407 120.391 16.0864C120.66 15.7653 121.079 15.4204 121.619 15.064C122.149 14.7137 122.733 14.3921 123.292 14.0953C123.813 13.8186 124.388 13.5257 124.769 13.2885L123.353 11.0132C123.076 11.1858 122.647 11.4032 122.035 11.7279C121.461 12.0325 120.783 12.4035 120.141 12.828C119.508 13.2463 118.844 13.7586 118.335 14.3674C117.826 14.9766 117.377 15.7989 117.426 16.7922L120.103 16.6622ZM124.769 13.2885C130.597 9.66099 138.198 4.72165 144.532 2.76776L143.742 0.206838C136.99 2.28954 129.026 7.48174 123.353 11.0132L124.769 13.2885ZM131.347 20.7986C128.288 29.8522 122.806 40.1328 115.751 49.0571C108.687 57.993 100.131 65.4635 90.9691 69.0492L91.9458 71.5449C101.711 67.7234 110.625 59.8637 117.854 50.7191C125.092 41.5626 130.725 31.0119 133.887 21.6562L131.347 20.7986ZM90.9691 69.0492C87.9493 70.2307 82.7391 70.9858 77.4401 70.6717L77.2814 73.3471C82.8478 73.6774 88.4677 72.9062 91.9458 71.5449L90.9691 69.0492ZM77.4401 70.6717C73.0872 70.4136 68.8646 69.4439 65.8355 67.5607C62.8823 65.7248 61.0853 63.054 61.3054 59.1518L58.6295 59.0009C58.345 64.0439 60.7822 67.5751 64.4205 69.8369C67.983 72.0517 72.7092 73.076 77.2814 73.3471L77.4401 70.6717ZM61.3054 59.1518C61.5069 55.5814 62.9507 53.7016 64.701 52.8318C66.5373 51.9193 69.0277 51.9585 71.5362 52.9112C76.6157 54.8404 80.729 60.0255 78.841 65.9827L81.3957 66.7925C83.8697 58.9869 78.3524 52.6329 72.4881 50.4056C69.5245 49.2801 66.2157 49.0862 63.5083 50.4316C60.7153 51.8196 58.8729 54.6878 58.6295 59.0008L61.3054 59.1518ZM78.841 65.9826C78.2179 67.9481 77.3412 69.6952 76.2615 71.2428L78.4601 72.7761C79.6938 71.0073 80.6909 69.0164 81.3957 66.7925L78.841 65.9826ZM76.2615 71.2428C71.0653 78.6925 60.9732 81.735 51.4576 81.5691L51.4109 84.2488C61.345 84.4222 72.5309 81.276 78.4601 72.7761L76.2615 71.2428ZM51.4576 81.569C31.1496 81.2144 14.6966 71.9618 2.91992 55.5315L0.741534 57.0929C12.9782 74.1649 30.199 83.8784 51.4108 84.2488L51.4576 81.569Z" fill="#6A09AD"/>
</svg>
