<svg width="21" height="24" viewBox="0 0 21 24" fill="none" xmlns="http://www.w3.org/2000/svg">
<path fill-rule="evenodd" clip-rule="evenodd" d="M14.9606 0.0214656C14.694 0.057541 14.1296 0.230788 13.7508 0.392963C12.0745 1.11049 10.8231 2.61252 10.4532 4.35123C10.3878 4.65878 10.3624 5.54697 10.4152 5.68438C10.4674 5.82047 11.0208 5.77065 11.6768 5.57076C13.2494 5.09155 14.6003 3.66307 15.093 1.95847C15.2495 1.41724 15.3295 0.756345 15.2899 0.333385C15.2551 -0.0372685 15.2726 -0.0207085 14.9606 0.0214656ZM5.77039 5.68982C4.48786 5.93315 3.30501 6.62811 2.28824 7.73552C1.36824 8.73761 0.833258 9.92496 0.6108 11.4584C0.323181 13.4414 0.656352 15.7709 1.54341 17.9792C2.25493 19.7505 3.41718 21.5927 4.52004 22.6973C5.49337 23.6721 6.31922 24.0588 7.28655 23.9928C7.77795 23.9593 8.01439 23.8907 8.87565 23.5316C9.6854 23.1939 10.1095 23.0795 10.7708 23.0203C11.7134 22.936 12.4652 23.0761 13.519 23.5324C14.3233 23.8807 14.582 23.9579 15.0545 23.9907C16.4682 24.0887 17.7648 23.0868 19.3691 20.6565C19.6599 20.2161 20.0264 19.6235 20.1838 19.3397C20.4585 18.8439 20.9888 17.7217 20.9888 17.6359C20.9888 17.6132 20.8536 17.537 20.6882 17.4667C19.978 17.1649 19.0699 16.4081 18.5967 15.7235C17.335 13.8985 17.2939 11.5228 18.4926 9.70344C18.7742 9.27597 19.4386 8.62282 19.9019 8.31793L20.324 8.04021L20.044 7.7252C19.0969 6.65949 17.8054 5.91167 16.5357 5.69376C15.4665 5.51024 14.4956 5.6468 13.0607 6.18249C12.105 6.53926 11.7659 6.61643 11.1607 6.61488C10.5281 6.61324 10.2178 6.54437 9.06607 6.14998C8.58479 5.98518 8.00426 5.80846 7.77598 5.75723C7.20797 5.62986 6.25527 5.59782 5.77039 5.68982Z" fill="white"/>
</svg>
