<svg width="222" height="30" viewBox="0 0 222 30" fill="none" xmlns="http://www.w3.org/2000/svg">
<path fill-rule="evenodd" clip-rule="evenodd" d="M27.5349 26.3645C27.0843 27.1161 27.3037 28.0992 28.0852 28.4956C29.9268 29.4297 31.9441 29.9438 34.0023 29.9956C36.5794 30.0606 39.1255 29.3985 41.3732 28.0789C43.6208 26.7594 45.4869 24.8311 46.7753 22.4969C48.0637 20.1627 48.7267 17.5087 48.6947 14.8139C48.6627 12.1192 47.9369 9.48318 46.5936 7.18309C45.2502 4.88299 43.3389 3.00375 41.0607 1.7429C38.7824 0.482055 36.2213 -0.113813 33.6466 0.0179352C31.5887 0.123239 29.5828 0.690269 27.7629 1.67316C26.9931 2.08888 26.7986 3.07526 27.2665 3.81443C27.7624 4.59764 28.8071 4.7984 29.6412 4.39386C30.9441 3.76189 32.3562 3.39587 33.8013 3.32193C35.8082 3.21924 37.8045 3.6837 39.5803 4.66649C41.3562 5.64928 42.8459 7.1141 43.893 8.90695C44.9402 10.6998 45.5059 12.7545 45.5308 14.855C45.5558 16.9554 45.0389 19.0241 44.0347 20.8436C43.0305 22.6631 41.5759 24.1661 39.8239 25.1946C38.072 26.2232 36.0873 26.7393 34.0786 26.6887C32.6328 26.6522 31.213 26.3232 29.8959 25.7257C29.0515 25.3426 28.0117 25.5692 27.5349 26.3645ZM21.161 26.3645C21.6116 27.1161 21.3923 28.0992 20.6107 28.4956C18.7691 29.4297 16.7519 29.9438 14.6936 29.9957C12.1166 30.0606 9.5704 29.3985 7.32275 28.0789C5.0751 26.7594 3.20901 24.8311 1.92065 22.4969C0.632288 20.1627 -0.0307542 17.5087 0.00122461 14.8139C0.0332034 12.1192 0.759023 9.48319 2.10238 7.1831C3.44574 4.883 5.35701 3.00376 7.63528 1.74291C9.91355 0.482067 12.4747 -0.113802 15.0494 0.0179468C17.1073 0.12325 19.1131 0.69028 20.9331 1.67317C21.7028 2.08889 21.8974 3.07527 21.4294 3.81445C20.9336 4.59765 19.8888 4.79841 19.0548 4.39387C17.7518 3.76191 16.3397 3.39588 14.8947 3.32194C12.8878 3.21925 10.8915 3.68371 9.11562 4.6665C7.33978 5.64929 5.85 7.11411 4.80289 8.90696C3.75579 10.6998 3.19003 12.7545 3.16511 14.855C3.14018 16.9554 3.657 19.0242 4.66124 20.8436C5.66548 22.6631 7.12004 24.1661 8.87202 25.1946C10.624 26.2232 12.6087 26.7393 14.6174 26.6887C16.0632 26.6522 17.4829 26.3232 18.8 25.7257C19.6445 25.3426 20.6842 25.5692 21.161 26.3645ZM24.5238 26.6667C24.5238 26.6667 30.4762 21.4433 30.4762 15C30.4762 8.55668 24.5238 3.33333 24.5238 3.33333C24.5238 3.33333 18.5714 8.55668 18.5714 15C18.5714 21.4433 24.5238 26.6667 24.5238 26.6667ZM24.5238 21.4786C22.6983 21.4786 21.2184 18.578 21.2184 15C21.2184 11.422 22.6983 8.52139 24.5238 8.52139C26.3493 8.52139 27.8292 11.422 27.8292 15C27.8292 18.578 26.3493 21.4786 24.5238 21.4786Z" fill="#6D6DBB"/>
<rect x="56.3147" y="0.714355" width="2.38095" height="28.5714" rx="1.19048" fill="#6D6DBB"/>
<path d="M67.7595 6.37663H72.0939L76.6718 17.5455H76.8666L81.4446 6.37663H85.779V23H82.3699V12.1802H82.2319L77.93 22.9188H75.6085L71.3066 12.1396H71.1686V23H67.7595V6.37663ZM87.7007 6.37663H91.6373L95.4279 13.5357H95.5903L99.3808 6.37663H103.318L97.2542 17.1234V23H93.764V17.1234L87.7007 6.37663ZM110.527 23V6.37663H117.086C118.347 6.37663 119.421 6.61743 120.308 7.09903C121.196 7.57522 121.872 8.2381 122.337 9.08766C122.808 9.93182 123.044 10.9058 123.044 12.0097C123.044 13.1136 122.805 14.0877 122.329 14.9318C121.853 15.776 121.163 16.4334 120.259 16.9042C119.361 17.375 118.274 17.6104 116.997 17.6104H112.816V14.7938H116.428C117.105 14.7938 117.662 14.6775 118.1 14.4448C118.544 14.2067 118.874 13.8793 119.091 13.4627C119.313 13.0406 119.423 12.5563 119.423 12.0097C119.423 11.4578 119.313 10.9762 119.091 10.5649C118.874 10.1483 118.544 9.8263 118.1 9.59903C117.657 9.36634 117.094 9.25 116.412 9.25H114.042V23H110.527ZM126.272 23H122.506L128.244 6.37663H132.774L138.504 23H134.738L130.574 10.1753H130.444L126.272 23ZM126.037 16.4659H134.933V19.2094H126.037V16.4659ZM137.835 6.37663H141.771L145.562 13.5357H145.724L149.515 6.37663H153.451L147.388 17.1234V23H143.898V17.1234L137.835 6.37663ZM155.371 6.37663H159.706L164.283 17.5455H164.478L169.056 6.37663H173.391V23H169.981V12.1802H169.843L165.542 22.9188H163.22L158.918 12.1396H158.78V23H155.371V6.37663ZM176.286 23V6.37663H187.488V9.27435H179.801V13.2354H186.911V16.1331H179.801V20.1023H187.52V23H176.286ZM204.186 6.37663V23H201.15L193.918 12.5373H193.796V23H190.282V6.37663H193.366L200.542 16.8312H200.688V6.37663H204.186ZM206.457 9.27435V6.37663H220.109V9.27435H215.02V23H211.546V9.27435H206.457Z" fill="#6D6DBB"/>
</svg>
