<svg width="147" height="85" viewBox="0 0 147 85" fill="none" xmlns="http://www.w3.org/2000/svg">
<path d="M0.488109 2.94811C0.428162 2.21036 0.977795 1.56391 1.71546 1.5041C2.45312 1.44429 3.09959 1.99381 3.15953 2.73156L0.488109 2.94811ZM3.67423 21.2939L2.33913 21.4118L2.33904 21.4109L3.67423 21.2939ZM3.85632 27.457L2.82831 28.3167L2.82798 28.3162L3.85632 27.457ZM9.84704 26.277L10.3815 27.5061L10.3808 27.5062L9.84704 26.277ZM24.1308 18.9955L23.4865 17.8205L23.4871 17.8205L24.1308 18.9955ZM28.1916 16.6447L26.8531 16.5799L26.8532 16.5798L28.1916 16.6447ZM22.895 12.0685L23.6032 10.9308L23.6032 10.9308L22.895 12.0685ZM2.42427 2.68536C1.71709 2.46722 1.32076 1.71711 1.53902 1.00994C1.75729 0.302773 2.50736 -0.0937061 3.21454 0.124441L2.42427 2.68536ZM13.0694 21.5738C12.8328 20.8729 13.2089 20.1122 13.9101 19.8753C14.6114 19.6384 15.372 20.0149 15.609 20.7162L13.0694 21.5738ZM55.4987 70.2144L55.9869 68.9668L55.4987 70.2144ZM86.9886 58.9939L88.3266 58.9184L88.3266 58.9185L86.9886 58.9939ZM66.8377 66.3052L65.5604 66.7101L66.8377 66.3052ZM95.5218 82.8265L95.5452 84.1664L95.5452 84.1664L95.5218 82.8265ZM144.036 55.4491C144.467 54.8476 145.304 54.7094 145.906 55.1406C146.508 55.5718 146.646 56.409 146.215 57.0105L144.036 55.4491ZM3.15953 2.73156C3.40799 5.79402 3.73364 8.85148 4.06592 11.9253C4.39809 14.9939 4.73737 18.0813 5.00894 21.1766L2.33904 21.4109C2.07066 18.3486 1.73442 15.2913 1.40129 12.2136C1.06926 9.14154 0.73986 6.05098 0.488109 2.94811L3.15953 2.73156ZM5.00888 21.1757C5.04719 21.6046 5.02187 22.1952 4.99215 22.7485C4.95945 23.3508 4.9169 23.968 4.8904 24.6003C4.86434 25.2287 4.85812 25.7894 4.89207 26.2238C4.90901 26.441 4.93337 26.5896 4.95645 26.6805C4.98511 26.7938 4.98754 26.7209 4.88468 26.5979L2.82798 28.3162C2.55451 27.989 2.42716 27.6103 2.35835 27.3393C2.28394 27.0457 2.24306 26.7317 2.21994 26.4319C2.17326 25.8319 2.18513 25.1403 2.21261 24.488C2.23963 23.8398 2.28657 23.1485 2.3161 22.6042C2.34811 22.0106 2.35729 21.6162 2.33913 21.4118L5.00888 21.1757ZM4.88433 26.5974C4.69678 26.3733 4.55574 26.4954 4.99903 26.4748C5.36511 26.4583 5.86873 26.3514 6.45755 26.171C7.62489 25.813 8.79673 25.2724 9.31324 25.0478L10.3808 27.5062C9.9379 27.6988 8.59215 28.3198 7.24301 28.7333C6.57357 28.9386 5.81948 29.1202 5.12248 29.1524C4.50314 29.1809 3.49366 29.1123 2.82831 28.3167L4.88433 26.5974ZM9.31302 25.0482C14.1689 22.9371 18.7753 20.4036 23.4865 17.8205L24.7751 20.1706C20.0848 22.7422 15.3696 25.3375 10.3815 27.5061L9.31302 25.0482ZM23.4871 17.8205C23.6703 17.7197 24.0508 17.5432 24.4206 17.3689C24.8237 17.1789 25.2957 16.9543 25.748 16.7241C26.2088 16.4899 26.6106 16.2688 26.8855 16.0875C26.9515 16.044 27.0036 16.0073 27.0431 15.9774C27.0627 15.9628 27.0771 15.9508 27.0878 15.9418C27.0929 15.9373 27.0972 15.9341 27.0999 15.9317C27.1026 15.9292 27.1038 15.928 27.1038 15.9281C27.1037 15.9282 27.1017 15.9297 27.0985 15.9329C27.0954 15.9362 27.0905 15.9416 27.0842 15.9492C27.0719 15.963 27.0499 15.9904 27.0236 16.0305C26.9824 16.0944 26.8672 16.2876 26.8531 16.5799L29.5301 16.7096C29.5127 17.0722 29.367 17.3428 29.2713 17.4902C29.169 17.6482 29.0526 17.7726 28.9598 17.8615C28.7749 18.0392 28.5565 18.1965 28.3591 18.3262C27.9558 18.5917 27.4464 18.8671 26.9635 19.1129C26.4725 19.3629 25.9687 19.602 25.5632 19.793C25.1249 20 24.8645 20.1218 24.7749 20.1709L23.4871 17.8205ZM26.8532 16.5798C26.8568 16.5059 26.8328 16.3246 26.5648 16.004C26.2965 15.6829 25.8767 15.338 25.3372 14.9816C24.8072 14.6313 24.2235 14.3097 23.6645 14.0129C23.1434 13.7362 22.5679 13.4433 22.1868 13.2061L23.6032 10.9308C23.8805 11.1034 24.3095 11.3208 24.9211 11.6455C25.4948 11.9501 26.1726 12.3211 26.8151 12.7456C27.4481 13.1639 28.1124 13.6762 28.6213 14.285C29.1305 14.8942 29.5787 15.7165 29.5301 16.7098L26.8532 16.5798ZM22.1868 13.2061C16.359 9.5786 8.75777 4.63925 2.42427 2.68536L3.21454 0.124441C9.96574 2.20714 17.9298 7.39934 23.6032 10.9308L22.1868 13.2061ZM15.609 20.7162C18.6679 29.7698 24.1504 40.0504 31.205 48.9747C38.2692 57.9106 46.8248 65.3811 55.9869 68.9668L55.0103 71.4625C45.2447 67.641 36.3312 59.7813 29.1022 50.6367C21.8641 41.4802 16.2306 30.9295 13.0694 21.5738L15.609 20.7162ZM55.9869 68.9668C59.0068 70.1484 64.217 70.9034 69.5159 70.5893L69.6747 73.2647C64.1082 73.595 58.4884 72.8238 55.0103 71.4625L55.9869 68.9668ZM69.5159 70.5893C73.8689 70.3312 78.0915 69.3615 81.1205 67.4783C84.0738 65.6424 85.8708 62.9716 85.6507 59.0694L88.3266 58.9185C88.611 63.9615 86.1738 67.4927 82.5355 69.7545C78.9731 71.9693 74.2469 72.9936 69.6747 73.2647L69.5159 70.5893ZM85.6506 59.0694C85.4492 55.499 84.0053 53.6192 82.2551 52.7494C80.4187 51.8369 77.9283 51.8761 75.4199 52.8288C70.3404 54.758 66.2271 59.9431 68.1151 65.9003L65.5604 66.7101C63.0863 58.9045 68.6036 52.5505 74.468 50.3232C77.4315 49.1977 80.7404 49.0038 83.4477 50.3492C86.2407 51.7372 88.0832 54.6054 88.3266 58.9184L85.6506 59.0694ZM68.1151 65.9002C68.7382 67.8657 69.6149 69.6128 70.6946 71.1605L68.4959 72.6937C67.2623 70.9249 66.2651 68.934 65.5604 66.7101L68.1151 65.9002ZM70.6946 71.1605C75.8908 78.6101 85.9829 81.6526 95.4985 81.4867L95.5452 84.1664C85.6111 84.3398 74.4252 81.1936 68.4959 72.6937L70.6946 71.1605ZM95.4984 81.4866C115.806 81.132 132.259 71.8794 144.036 55.4491L146.215 57.0105C133.978 74.0825 116.757 83.796 95.5452 84.1664L95.4984 81.4866Z" fill="#6A09AD"/>
</svg>
