<svg width="222" height="30" viewBox="0 0 222 30" fill="none" xmlns="http://www.w3.org/2000/svg">
<path fill-rule="evenodd" clip-rule="evenodd" d="M27.5348 26.3645C27.0842 27.1161 27.3036 28.0992 28.0851 28.4956C29.9267 29.4297 31.9439 29.9438 34.0022 29.9956C36.5792 30.0606 39.1254 29.3985 41.3731 28.0789C43.6207 26.7594 45.4868 24.8311 46.7752 22.4969C48.0635 20.1627 48.7266 17.5087 48.6946 14.8139C48.6626 12.1192 47.9368 9.48318 46.5934 7.18309C45.2501 4.883 43.3388 3.00375 41.0605 1.7429C38.7823 0.482059 36.2212 -0.11381 33.6465 0.0179383C31.5885 0.123242 29.5827 0.690272 27.7628 1.67316C26.993 2.08888 26.7985 3.07527 27.2664 3.81444C27.7623 4.59764 28.807 4.7984 29.6411 4.39386C30.944 3.7619 32.3561 3.39588 33.8011 3.32193C35.808 3.21924 37.8044 3.6837 39.5802 4.66649C41.356 5.64928 42.8458 7.1141 43.8929 8.90695C44.94 10.6998 45.5058 12.7545 45.5307 14.855C45.5556 16.9554 45.0388 19.0241 44.0346 20.8436C43.0303 22.6631 41.5758 24.1661 39.8238 25.1946C38.0718 26.2232 36.0872 26.7393 34.0784 26.6887C32.6327 26.6522 31.2129 26.3232 29.8958 25.7257C29.0513 25.3426 28.0116 25.5692 27.5348 26.3645ZM21.1609 26.3645C21.6115 27.1161 21.3921 28.0992 20.6106 28.4956C18.769 29.4297 16.7518 29.9438 14.6935 29.9957C12.1165 30.0606 9.57028 29.3985 7.32263 28.0789C5.07498 26.7594 3.20889 24.8311 1.92053 22.4969C0.632168 20.1627 -0.0308745 17.5087 0.00110439 14.8139C0.0330832 12.1192 0.758902 9.4832 2.10226 7.1831C3.44562 4.88301 5.35689 3.00376 7.63516 1.74292C9.91343 0.48207 12.4745 -0.113798 15.0492 0.0179499C17.1072 0.123254 19.113 0.690283 20.9329 1.67317C21.7027 2.08889 21.8973 3.07528 21.4293 3.81445C20.9335 4.59765 19.8887 4.79841 19.0546 4.39387C17.7517 3.76191 16.3396 3.39589 14.8946 3.32194C12.8877 3.21925 10.8913 3.68371 9.1155 4.6665C7.33966 5.64929 5.84988 7.11411 4.80277 8.90696C3.75567 10.6998 3.18991 12.7545 3.16499 14.855C3.14006 16.9554 3.65688 19.0242 4.66112 20.8436C5.66536 22.6631 7.11992 24.1661 8.8719 25.1946C10.6239 26.2232 12.6085 26.7393 14.6173 26.6887C16.063 26.6522 17.4828 26.3232 18.7999 25.7257C19.6444 25.3426 20.6841 25.5692 21.1609 26.3645ZM24.5237 26.6667C24.5237 26.6667 30.4761 21.4433 30.4761 15C30.4761 8.55668 24.5237 3.33334 24.5237 3.33334C24.5237 3.33334 18.5713 8.55668 18.5713 15C18.5713 21.4433 24.5237 26.6667 24.5237 26.6667ZM24.5237 21.4786C22.6982 21.4786 21.2183 18.578 21.2183 15C21.2183 11.422 22.6982 8.52139 24.5237 8.52139C26.3492 8.52139 27.8291 11.422 27.8291 15C27.8291 18.578 26.3492 21.4786 24.5237 21.4786Z" fill="white"/>
<rect x="56.3147" y="0.714233" width="2.38095" height="28.5714" rx="1.19048" fill="white"/>
<path d="M67.7595 6.37663H72.0939L76.6718 17.5455H76.8666L81.4446 6.37663H85.779V23H82.3699V12.1802H82.2319L77.93 22.9188H75.6085L71.3066 12.1396H71.1686V23H67.7595V6.37663ZM87.7007 6.37663H91.6373L95.4279 13.5357H95.5903L99.3808 6.37663H103.318L97.2542 17.1234V23H93.764V17.1234L87.7007 6.37663ZM110.527 23V6.37663H117.086C118.347 6.37663 119.421 6.61743 120.308 7.09903C121.196 7.57522 121.872 8.2381 122.337 9.08766C122.808 9.93182 123.044 10.9058 123.044 12.0097C123.044 13.1136 122.805 14.0877 122.329 14.9318C121.853 15.776 121.163 16.4334 120.259 16.9042C119.361 17.375 118.274 17.6104 116.997 17.6104H112.816V14.7938H116.428C117.105 14.7938 117.662 14.6775 118.1 14.4448C118.544 14.2067 118.874 13.8793 119.091 13.4627C119.313 13.0406 119.423 12.5563 119.423 12.0097C119.423 11.4578 119.313 10.9762 119.091 10.5649C118.874 10.1483 118.544 9.8263 118.1 9.59903C117.657 9.36634 117.094 9.25 116.412 9.25H114.042V23H110.527ZM126.272 23H122.506L128.244 6.37663H132.774L138.504 23H134.738L130.574 10.1753H130.444L126.272 23ZM126.037 16.4659H134.933V19.2094H126.037V16.4659ZM137.835 6.37663H141.771L145.562 13.5357H145.724L149.515 6.37663H153.451L147.388 17.1234V23H143.898V17.1234L137.835 6.37663ZM155.371 6.37663H159.706L164.283 17.5455H164.478L169.056 6.37663H173.391V23H169.981V12.1802H169.843L165.542 22.9188H163.22L158.918 12.1396H158.78V23H155.371V6.37663ZM176.286 23V6.37663H187.488V9.27435H179.801V13.2354H186.911V16.1331H179.801V20.1023H187.52V23H176.286ZM204.186 6.37663V23H201.15L193.918 12.5373H193.796V23H190.282V6.37663H193.366L200.542 16.8312H200.688V6.37663H204.186ZM206.457 9.27435V6.37663H220.109V9.27435H215.02V23H211.546V9.27435H206.457Z" fill="white"/>
</svg>
