<svg width="23" height="24" viewBox="0 0 23 24" fill="none" xmlns="http://www.w3.org/2000/svg">
<path fill-rule="evenodd" clip-rule="evenodd" d="M2.41118 0.0621638C2.05551 0.139553 1.57073 0.329462 1.57181 0.390904C1.57279 0.447797 12.3855 10.4437 12.4513 10.4486C12.4772 10.4505 13.3181 9.63232 14.3198 8.63029L16.1412 6.80845L10.3487 3.61115C7.16279 1.85262 4.42053 0.35038 4.25483 0.27285C3.69148 0.00921068 3.01144 -0.068507 2.41118 0.0621638ZM0.26055 1.72749C-0.0129861 2.33699 9.97859e-05 1.82106 9.97859e-05 11.9999C9.97859e-05 22.1468 -0.0114852 21.6761 0.252201 22.2521C0.316177 22.3918 0.385499 22.5061 0.406323 22.5061C0.427148 22.5061 2.90975 20.0405 5.92325 17.0269L11.4023 11.5477L5.92625 6.49725C2.91444 3.71954 0.435872 1.44682 0.418331 1.44682C0.400836 1.44682 0.329825 1.57313 0.26055 1.72749ZM15.5157 9.54925L13.5621 11.5074L15.3049 13.11C16.2634 13.9914 17.3483 14.9903 17.7158 15.3298L18.3841 15.947L19.6857 15.2316C20.4016 14.8381 21.1046 14.4375 21.2478 14.3413C22.0094 13.8301 22.5101 12.9013 22.5101 11.9999C22.5101 11.0973 21.9914 10.1409 21.2307 9.64076C20.922 9.43781 17.5729 7.59107 17.5135 7.59107C17.4892 7.59107 16.5902 8.47223 15.5157 9.54925ZM6.98564 18.0761C2.61192 22.4507 1.49038 23.5963 1.54625 23.6322C1.67255 23.7136 2.22066 23.905 2.47487 23.9566C3.02523 24.0682 3.80611 23.9585 4.32551 23.6966C4.67287 23.5215 16.8983 16.7785 16.9464 16.7355C16.9772 16.708 15.196 15.0381 12.614 12.6737L12.4954 12.5652L6.98564 18.0761Z" fill="white"/>
</svg>
