<svg width="30" height="30" viewBox="0 0 30 30" fill="none" xmlns="http://www.w3.org/2000/svg">
<rect width="30" height="30" rx="6" fill="#6D6DBB"/>
<path d="M13.1649 18.1487V17.8662C13.1705 16.8967 13.2563 16.1239 13.4225 15.5478C13.5943 14.9717 13.8436 14.5063 14.1704 14.1518C14.4973 13.7972 14.8906 13.4759 15.3504 13.1879C15.6938 12.9663 16.0013 12.7364 16.2728 12.4982C16.5442 12.2599 16.7603 11.9968 16.9209 11.7087C17.0816 11.4151 17.1619 11.0883 17.1619 10.7282C17.1619 10.346 17.0705 10.0108 16.8877 9.72273C16.7049 9.43466 16.4583 9.21307 16.1481 9.05795C15.8434 8.90284 15.5055 8.82528 15.1343 8.82528C14.7742 8.82528 14.4335 8.90561 14.1122 9.06626C13.7909 9.22138 13.5278 9.45405 13.3228 9.76428C13.1179 10.069 13.0071 10.4484 12.9904 10.9027H9.6001C9.6278 9.79474 9.89371 8.88068 10.3978 8.16051C10.9019 7.4348 11.5695 6.89467 12.4005 6.54013C13.2314 6.18004 14.1483 6 15.1509 6C16.2534 6 17.2284 6.18281 18.076 6.54844C18.9235 6.90852 19.5883 7.43203 20.0703 8.11896C20.5522 8.80589 20.7932 9.63409 20.7932 10.6036C20.7932 11.2517 20.6852 11.8278 20.4691 12.332C20.2586 12.8305 19.9622 13.2737 19.58 13.6615C19.1978 14.0437 18.7463 14.39 18.2255 14.7002C17.7879 14.9606 17.4278 15.232 17.1453 15.5146C16.8683 15.7971 16.6605 16.1239 16.522 16.4951C16.3891 16.8663 16.3198 17.3233 16.3143 17.8662V18.1487H13.1649ZM14.8103 23.4669C14.2563 23.4669 13.7826 23.273 13.3893 22.8852C13.0015 22.4919 12.8104 22.021 12.8159 21.4726C12.8104 20.9297 13.0015 20.4643 13.3893 20.0766C13.7826 19.6888 14.2563 19.4949 14.8103 19.4949C15.3365 19.4949 15.7991 19.6888 16.198 20.0766C16.5968 20.4643 16.799 20.9297 16.8046 21.4726C16.799 21.8382 16.7021 22.1734 16.5137 22.4781C16.3309 22.7772 16.0899 23.0182 15.7908 23.201C15.4916 23.3783 15.1648 23.4669 14.8103 23.4669Z" fill="white"/>
</svg>
